<mxfile host="Electron" agent="Mozilla/5.0 (Windows NT 10.0; Win64; x64) AppleWebKit/537.36 (KHTML, like Gecko) draw.io/27.0.2 Chrome/134.0.6998.205 Electron/35.3.0 Safari/537.36" version="27.0.2">
  <diagram name="Page-1" id="o_gTYtVGxeZeWJWGoIt9">
    <mxGraphModel dx="1501" dy="894" grid="1" gridSize="10" guides="1" tooltips="1" connect="1" arrows="1" fold="1" page="1" pageScale="1" pageWidth="1100" pageHeight="850" math="0" shadow="0">
      <root>
        <mxCell id="0" />
        <mxCell id="1" parent="0" />
        <mxCell id="LluAJBt3xVjl9sZeZdFl-1" value="" style="shape=image;verticalLabelPosition=bottom;labelBackgroundColor=default;verticalAlign=top;aspect=fixed;imageAspect=0;image=data:image/png,iVBORw0KGgoAAAANSUhEUgAAAT4AAALWCAYAAADfx/9CAAAAAXNSR0IArs4c6QAAAARnQU1BAACxjwv8YQUAAAAJcEhZcwAADsMAAA7DAcdvqGQAAGXtSURBVHhe7d0LXFRl/gbwh9Q0rdBKabeLJuCdylorKDMr20BKrRWr3TXLgrJS2H+2ZtnNsotb0EULyl2zq1ippdBmZWZJZZGFd9C07aamoqXllf/7e+c9MDPMwAwMMGfO8/Vz5Jz3nDkzZ86cZ9733CaqvLy8AkTkeJ9++ikuuugi7Nixw5RErkPMXyIix4j673//yxofETkKm7pE5CibNm1ijY+IItuZZ55p+lwqg++kk04yRUREkeObb77xGXw8uEFEjsPgIyLHYfARkeNwHx8Rhdxf//Z30+fppRdfMH2NIzL38W2cjrS06dhoBoko8iz68ENMnvwv7Nu335RA9e/D5H89ii+++MKUBKd68EmYdOmCLhMWmQKXRRNUWU0hE0wIWc/h1nk9HRHZnNTu3Lu6WrVyFZZ99RWyc7J1+EnoPfroY1i2bBmKv/zSTBUc3zW+U4dh2JopmG6lmAqqKWtOxalm0KeOI5CfPwIdzWCtTh2PBWvXYq10C8ZjzfUMPyK7kyau1cy1+v01ewOVnn49zj47CV999TUey35M1f4eRcny5ejbty9GXnutmSo4fpq6sbgwBShY6Eq+Rc9NQtcUVWBsnJ7mVltLcwWkVeMzf6dLDTHQ2pyEpoTfFFNj9KgRTkDVwxdhQmW5mu9nplgsmqDKzGshoohxyCGH4IaMDCQmnoWvvy7BipUrVBCeg/Trr9Pj6sLvozqNuAldJz2HRbq2Nx7X9TcjlI4j8l01Neme7YpJz3kl27JJWHehNX4YZlqBVpOOJ6HrsnXYIOE2QAXts67HLxi/Btfr5NyI6WnXA6ZcuolnuB6qg1KPyseIgKucRNQQfDVx61vrO3DgAH795VczBPzyyw5VdtAMBa+GuOyHC4fNxPUSQjd5NWHda2TXzwTWfOMZbKoZe10/098ptuYmsreN32CN2+M79k/BqTPfVQG8EAVwm69FheyAAetw09qJ6hUTUThyD8FgWfv0rOZtUlKirvlZ+/zqosZ6Yr/rxqvQGoYL3RNFQm9AAVIWmJqXaqIGFWz+6MCLRSczGDAVks9W1gqJKJIcPHgQjz6WXRl60ry98YYbKvf55Tz+uJkyODU3kGXfm6+a1Kkp6G+qgBsXFmCZq7ceTPNWapa6yTsJVutZz3/YhejXsT9SUFXurpNqej+L65HGHXxETc79oEZ9m7iyD++003pXhp4MW/v8zjnnHJytan91EfyeQRWGN3VVzUvT1B27rmvdanzSRLWay12mIFbVICfqhO2HieYor4wbMKkrntUjOmLE5Kpy6dwPbvSb+Cy6ThrA8CNqQu779ty7+rhowAAVdOkeBzKk/8YbMlSzN8mUBIdXbhBRxOLdWYiIDAYfETkO78BMRBHN5x2Y+ZsbROQk3MdHRI4U8hqfpCkRUVOLiYkxfZ4apKkrM5Vz7IiImopcVRZQ8IWypsbgI6KmFFTw+ZswGKzxEVFTqy34eHCDiByHwUdEjsPgIyLHYfARkeMw+IjIcRh8ROQ4DD4ichwGHxE5TpOewHzHHXeYPiJneOCBB0yfpzfeeMP0kT+XXXaZ6atdiK7cWI+pA07D2tvKkTPA1T9+KdBnUjEWjOpspnEJNvj8fRCIIk1Nn3cJvj/96U9miLx9/vnnIQ2+AJu667B26QgMHKB6FzyB8T1nobx8FnqOfwILXBMQEdlG0Pv4Fsyfjj5dYlVfLLr0WYHS9a5yIiK7CDD4BiBnFjC0bVsMnT4Ct0nzVmp+GIKLPVu6RERhL/Aa34Ac1bwtV12OikEzvGAUmHtEZDcBBt8CZLbN9NqfJwc5vMts4OcPMXXqh/jZDBI52oZpGDJkGjaYQacIeh+fpxDu45NAuuce3GO6qR+GQTSter3y9eju9VVmhM0w7EksvB0dO3as6m5faEY4Ty3BJ7W6tmjbdiimq3+yj69tZXcaxve8DV5ns9TRKrz+1HL0utkKmWGI2bLFjGsaP384FffMBIa5Bd8wrFSvlMh+Nkwbgo4jgOkbN2Kj6abjHTg1+pr8BGbXeU0q+O5ZiR73XI7urlFVpLby1PvYrAc64PybR+HcY1zB9NT7rtLKcqhp84FeMe/j/ZIEFVoyP5n3TJSYKRMuOh+bllnTmLJh9+Byjyf+GR/KjNJcz1WNx2syzyNl+VsQo56pRI1IGHYz2i98CvIS9fzbe47Xj7Se1+/8/LxOX++Jx7LrEWZ6WRbX6xAdzr8Zaciveu86nI+bR50LX4tJodV05/FtwLQhWUD2bIzsZIos0tTVo0aik/T3uw/FesRpuGuRa3oJzX73uUory+F6XGq3+3Dfy1epQH0Q/c0UDaGJzuNz1fwy3XfoLchE2wFT1ZhQ6I4eCSWYWa05KTXBLehv1bpu7oXl+a4m2zHnjqqsid0zLAbvLzKP2/w+tvSQcgk92eh1ta1y2sslkyunkccmoGShVzPw55VYvjkG7X2mgbym9xFj5nnz+Zsw03rNmzehfZqZ50wJTq/5W+Ot5535uppbTfPz9Tr9vye+pz8G56adjw4ScKp8VI+VyH8/Rr0lrumGxWxB09atqcFteA/ziruhs3foeViI2/uVYbRVI1yUinlZrn1/nUbOrqwlbpzeDfflmnpi8X0ou0jKGzb0GkKAwed2ArNlwGhMwmy8HaJ9fN0vNxus2jD1X9n4f96CTaqGpANROqnlbDYbqtR6rPKZqoqzaYtr41cbeD+r9iYBBrdhi/s07durOpMPHdqjven1IK/J7fHH9OiFDiWmCdyhF3pIWMo83ftlnLDKRPceqm63CVvW1DQ/H6+zpvckkOU6pr2udc68R0JX3ncftWyKPKfF4STT69OG9ViNlzHC2v8nNb/iMnyjx6nanVU+4mVg9XrXwZDT7kKG3RLPCDD45GTl6ZjvXuNb/zZmL+2J+FCfz9L9crVBD0OC28YvNRW9kevONAPd9wnerGo0+sEhIuGweTlWelQDw4iv98SMql13XK4f0wMr9V9XAFIE69QZ3Yrn4b3aDt2qIFtk1ex0p2pyuvk7D6mLTNmiu1Rj1/4CDL7OGLVAn8FcdXDjtNkYUmzO6asvCTL3Jq6uVakalw6g92G1Yj241Z5+Xrnc7O/yckwP9IKfx9eoO/qdD7z/lGcorHpdDXu9Jv3cCT2CrzWtWokSWYauQc6vpvekJm415df1EXMJwJtxfgdV6wzXgKcQ6Y+Mu4D7+t3ucTBj4e1uwzoc74PVivVwWiouMM3kDe/NM/sA7S3A4BMDkKNPYLa6BSE6oqtIQG2aWVWDkdpcmuxwVxunqs1tmmnKpZPTMo45F/1j3sdTpix/S4yfGp9r/5b7419fa0bVQvYh6v1t5nHSzYQEkudrekr2l3keGfFPBZb1mvURY31QIdj5+XlPzFif5P0y+1CnrmwuiW4e+xSW90rzfQCHIorsp1t01+qqpqzqRuAit31z/fGgqs2tHlE1vqOc39dpJEZ3uw/9TFlWWbeIqPEFflR3/VQMOG08lqIPJhWr0FuXibaPdEGx19UbdTuq6wBSq9UHinkE1al4d5a6a7qjuhnStC3HrBGmKMQHN4iIGksQR3Ub4ECGk6jm5ijW9ojCQoDBNwADR3gd1eXdWYjIpoK4cqPqzssuIzDLulOLm2D38RE5Cffx1U2o9/E16SVrROTC39yoXSMGn9yOaj4Glg/EfH2jAj9GzEJ5jqvux+AjoqZWz6O6cu6e1ZyVpq37eXxWNwsjps/nb28QkW2wqUtEESdE5/EJafa6XbLWdgCm8hw+IrKhwE9gHjAUqq1b1cQtHoLZp9nw1vNE5HhBnMDsdVuqzhdjCH9ekohsKMB9fK5z+NbeVg5z8NZcu7sWt3mdyxfMPj4ewieiYAR6SksIz+OTfXzup7TU/wRmnrRJRIEK5iTmEB7c8L4tVYjuxUdE1MgCDD5fv6tLRGRPAQbfAIyetMLzJgVERDYVcI3vifFLMd391vO6Yy2QiOwn4Bqf5/69BtrPJz9sIre7NoONrqmfn4gaRe3BJ6etsIZnfwx1okq1BJ/ccn48elpXbMgPrXn8qjgRUd18/fXXpq+6msaFQi3B53XFxoCBaJQ7sXjXTqxh/fd23D7E9YtPty/cgGmV/dZ0VeMry4WMM2UdOw7BNGvm7uXyI8qm2NNC3F75WLfnqiwzP9MXstfnPr9pmHZ7bdOb5fE7vXodWfID0a5fyxqiJt4wbUjlNPrXtGQyokby66+/4oUXXsA777xjSqpImYyTaRpKgPv4wkjxasRlb8TG6Vfh5RFZgNX/hNl4rfHy48d6GgkRFVz9yjDa+qHkRamYlyXTS/l96DbdKvf1Y8kSXiMAaxrVPdjf83H6Z/usRKrz6/M3v/tQdpHb9Ho+/pbH3/SdMDJbLZv5wejZF7yHrPu6qUVyTTe9m/nFfKJGcvjhh+Puu+/GggULPMJP+qVMxsk0DSWA4JuOoZX7+OTKDffhJtjnZ/248UlxakN269cjFbcfP0b/i3AVVmP9R+vV/y9X/aao1OyK1ca+QZWrMMio+nHR6ja8h3nwmsbrcZ0uSMVpL7+j4kip6+vzOz+357bmI8/va3lknK/pvcmPR+vHu2qW/R980O33VYkah3f4NVboiVqCz9/RXKuz0dUbKhCktqNrQrqz+cZer+Xpjwf1Yy7COzo8TdOaqJG5h19jhZ4I36auVYNRNrw3z8++t1osfAcvSw3rHFXDUU3AXO+tW2o+xfPwntnB5fN5Ol2AVHg9Vj+uqkw/7ir3X6UPkJ/XV+v8vJ4/YNZ7umEabtc7BSUAF+Gu01St07wHRI3NCr/GCj0RnsHXaSSyZT+XacpllXXz3WTzRQWC7MDXTUDZNTd7JDrJBr7oLqweYcql0zv0Vfn0brivn6vM9/O49o+5P/b2hZ7z6yf7yx4MMPYCeH21z8/f8tRAvaejr3I1j4e8pz5c9/Uzj+2HeanZGGk1v4magAReY4WeaNJbz4f87ixyVFOOJ+gwCUPh/vqIwlgT3Z2FiCgyRFbwqebc7HCuTYX76yNyCNb4iMhxmnwfHxFRoJrg1vOBCSb4iIgaAg9uEBF5YfARkeN4NHVDhU1dImpK3MdHRI4T1sE38aHHTR8RUe0mjBtj+moW9sEX6IIQkbMFkxc8qktETW7Hjh316kKNwUdEjsPgIyLHYfARkeMw+IjIcRh8ROQ4DD4ialKZmZmmr/Ew+IioyVih19jhx+AjoibhHXaNGX4MPiJqdO4hl5OTY/oaL/wCDL4FyGybqf53tx5TB3iXEREFzgo99/BrDPWs8a1A6XrTS0QUBO+wa8zwqyX4pFbXFm3bDsV09W9oW+m3utMwvudtGNXZTEpEFCB/IddY4VdL8HXGqAXlKC/30+UMMNMREdlH4E3dBZlutT2r4z4+IrKfwA9uDF2BScXetb4csM5HRHYTxMGNnojn/jwiigABBt8AjJ60AvPZriWiOli3bl2du4YQcFP3ifFLMX0o9/ERkf0FXOPL8di3x318RGRfge/jWz8VA3QtbwCmyknLcpR3wFTw/GUispsAg289pmbMxpDicswaYYoGjMYkzMbbTD4ispkAg28d1i7lUV0iigwB/67ugsy2mD+wHAPnD0Dp6AUYtU41dR/pguIFo+Ceh5Hyu7o//fQr1q7diujoVmjTpoUpbVy7du3Djh2/q/fzaBx77OGmlMh+iouLTV/wYmNj1XYYHdLf1Q3iB8Xlut3TMH6pGcQIzPJxcCNSgu/hhz/GuHHvmqGm9dBDF+Kf/zzbDBHZj42DLzCREnyPP/4pMjPfRq9eHRAff5QpbVylpduwfPlm5ORcjDFjzjSlFKj//W8HFi/+FlddlWBK/Nu4cQc++eQ7DBvW05T4t379drUh/4i//KWHKaHa2DT45H588zHQo4YnNcAnEL/As9YXKcE3Y8ZXuPrqOZg8eQBuvTXJlDauf/1rCcaOXYDnnx+M4cNPMaUUqOTkF/H22+vw5ptX4pJLav5MnnfedCxatBELFvwdF15Y887ss856Dp9++p0K1WtxzjknmlKqSbgFX+Cns/jE+/FRePruu514991vdP8LL3yl//ojNTipGQr5wqvJmjVb8dln36u+KEyfvsxVSLZTS/DxfnxkT1OnLsX+/QfRqlVzzJ69WgehP0899RkOHqxQ0zZDfv4KVSP41Yyp7sknP0WFaiPJtC+/XIKtW3ebMWQntQQf78dH9vP77/vx7LPFaN26hd43KgH49NOfm7Ge5Mj5f/6zDEcccShuueVM7NlzAHl5vptlO3fu0TXCtm1b4cYb++C33/bjuee+NGPJTgJv6kbC/fh27QI+/hjYvt0URJBt21zLJssYaYJcb6+8shw//7xbH9QYOzYJhx3WXAXhFzoQvUmQlZf/jquvPhX/+EciDj20GZ555nPs23fATFFFAvKXX/bi2mt762mbNz9E1ywPHNC7yesmktdbGAsw+CLgfnzr18teaWnXAH37uj5skUKWRZZJlk2WUZY1UtRhvUlzVNxyyxk4+ujWOgC3bNmtA9FdhWqzSjM3Kgq4+eYz9LmSaWk98cMPv+C111aZqVykKTxlymc45JAo3HRTHxx//JEYMqQbvv12B+bM8Zw2YJG83sJcPY7q+ha2R3UzMjB370lIL2gO9XUO7N4NREebkdVJ7UCaNvfd1x8TJpxrShvXxIkf4q67FuLII1vqfVV+7dgB1a4DWrRAXsp+DGq5AaraYkbaXJDr7cCBg9i69Tecd14nLFx4tS776qufcOqpuejd+1gUF2foMrFgwTpcdNGLuPjiOBQW/lWXLV36A84441mVQ8ehqOg6XSbmzy9FaurLuPTSrpg79wpd9tFH36rc+g/69euIDz6wruUEHn10CcaPf1+9zJYqVFWq+hPJ682LTY/q8n58ZA9SI5PmampqvCkBTjnlWB1OX375kw4ry5NPfqb/Ss3Q0qfPH1XoHY9PPvlehaAcvXVxr0Va5FQWCVM5DebrrzeZUuCtt9Zi794D+iAIhSmp8Um3Zs0a/dd3N6tCfZ/JavTqRlTM8ppW5hOo+x7MMX2NYN26iopevSoqrriioqJnz4qKjz4yI3x7/vllavnuqZg8+WNT0vjkueU1yGupkSyLLJMsmyyjLGukCHK9+fPaayv0ezl0aL4eXrduW8Uhh9xbER//RIVqxnp46aWv9bR/+9sbenj16p8roqLuqejRY4qa1nPif//7Sz3tyJFz9bCqXerh3r2f0cM1iuT15uWLL76ocye5IoLJi5ryTMYFXOOz/f34OneG+hqXnTnA4sXA2RF0CZgsiyyTLJssoyxrpAjRehs8uDtOPDG68tQW6xSWm246Q+/jczd0aE/84Q+HY9YsObVlV+UpLLIf0LvpeuWVvXDMMYdVntryxBNWzTCAK20ieb2FucCP6ur9fO5HdM19+eykTRvXh61dO1MQQWSZZNlkGSNNCNZbs2ZRuPHGP+lTWx57rKjyFJZrrjnVTFGlRYtDcMMNf9Kntsj+OusUluHDTzZTVJF9r+npf9KntvzrX0U6ANu3b60DMSCRvN7CWIDBJycyDwVmudX2iodg9mm89TzZx/XXn6ZPbZFz+qxTWOTAkS8ZGaejZctmurZnncLSps2hZqwnCVQ5tSUn5xMdgNdff3rNB6OoyQUYfHI/vhEY6N6u7XwxhvThJWtkH9apLXLE3jqFxZ+YGNepLb//fqDyFBZ/rFNbZL4SgBKEFN4CDL5YdOkz3fOo7vq3MZs3JyWbGTFCmrYVOOOM49C169GuQj+sG0P07XsiOneuuZn9t7+5msEDBsTqIKTwFsRtqWQfn1yza4ns+/HxtlSR67XXVuK00/5Qa5iJmTNX6NNbOnb0f+6gRfbvSUiecELt0zoN78fnJpyDjzciJQod2wXf+qkDcNrsIdVuMS+3oh+KWdVuVBApwcdbzxOFjs2CT47mZgC5C3zcfsr3ZWyREnxEFDo2u2Stpl9XkwMePKpLRPZTS/DVFG78yUkisqdagq8zRt3WE+OrnajsOsK7YtJo+1yyRkRk1H4e34AclBd3wSMel6u5ruJYwPvOE5ENBXYCc+dRWOBxc4Jy8K7zRGRXgQUfEVEEYfARkeMw+IjIcRh8ROQ4DD4ichwGHxE5DoOPiByHwUdEjsPgIyLHOURu0SKdsPrr0xERhbso+XHdQO+fF2q8Hx+RM9jsfnxERJGHwUdEjsPgIyLHYfARkeMw+IjIcRh8ROQ4DD4ichwGHxE5DoOPiByHwUdEjsPgIyLHYfC5K8tBUlQUoiq7JOSUmXHBkPkk5cDvQ2sbT57ssl58Pd69zGs5kuq0EBQKDD5vidkorahAhXSlaciPz0ChGRWwuEwsWZKJODNIIWD79VKIjPh8pJWaZagoQMKqUjOOGlsAwVeGnKQoZOhPmavfMd9WcV2RYHo1j2/sqlpHWU5S5bd4lHy7u33LVxsn7+HwLBQVZSFelen30WO+ZoM288jJcCsjF9uulwR0rUzdZOTmJpt+amwBBF8pVhWlY7Cso8LJyEoocH1bZU2O/I2xcA7yErsj3jWgvrFXYYJ7rWO4a2ManpWAAlNekLBKvWOGz3FxyJyRjURTg1mSWarmm4WEAtc0pdklSHF9ywBqI1w1WMpz1WZClWy5XpIxOD0PKRKi1nyoyQTV1C2ck4fE7vJxi0f3xBKsMd+sEcV84+tv+YndUWo1jcrWoATmgyud2iiKitQGo2sfUu769k/OddsYahpnkfmqjW2sGRGXmobEvDmuLxW3cseLgPWSnOsK0YrBc1yvlQHYZAIIPlUlL4D+YKXkpWNCpvq4Sc0PaUhtmp0lDct841eUqm9/2YBMsWaNq+xkg1Hvj+4fjDl643Nv/tQ0joISSeslOVc9dwHSrSClRhdYjU+vKOsDZYYjfee97AjXgW82CqklqFrHZO9Pqmo2ZeidSrIxlSJbasIbXaN8jrNqydbG6zXfsnn5KEof7HqfqbpwXi/6MfmYZ81L0Y9L6Io49ZxJ7jU8XaO0muvU2AIIvkJkVPtGlIMcjfwt2RRUwOt9O3qHudpIVG2jJEVqCKaTneLqw46seFMWj/y0GcjsaB7va5x8W6iNd4LZ35OUE+8x33jZ98Sd3jUL2/Uir0WOOJvXIY/LT0OpPC4uFWklKZXlUXKEdwaP/DeVAH5zQ4JvDgZ77MiV4BsOzFji+sDUEX9zg8gZbPSbG9apKynIc995rLt4ZCVMqFfoERE1lRqCLw6ZS6ydxT46NseIyKYCO7hRmOFW27M6B+zjI6KIFNjBjZQSZFdeamN1Ps59IiKygcBqfB6X2hAR2VsAwZeMsdklmMN2LRFFiICaupOzipDnfp4U9/ERkY0FVONzXd7DfXxEFBkC28cnl9voWp655Y8c5TW39yEispsAgk/uU+a6gWJBuilKHotseF6TSERkFwEEn9yPj0d1iShyBLSPT26g6HFUN5JvS0VEES+gfXzJuaXoPlHux1eELLnzRApQwN+UICKbCuzgRrXrdnlEl4jsK7Dg47W6RBRBAgg+XqtLRJElwKYuj+oSUeQIIPh4rS4RRZaAmrq8VpeIIklANT5eq0tEkSTAfXzyg0PutT1zzS4RkQ0FEHzyo0NyxrJbbU//hB6bukRkTwEEn1yrm47B7u1a+Y1Q9x9hJiKykQCCLx7dE72u1S2bh3zeuICIbCqA4JPL1QoA96O68aswgQc3iMimAjy44X1kl6FHRPYVWPBV3oHZ6nhgg4jsK4DgkzswZyHB/aiutHx563kisqkAgs/HUV3eep6IbCyA4JM7MHufusLb0RORfQUQfIWYY915uXIfXwry1L8U7u8jIhsKqMbn+1pdq+MRXvHkk5+hY8ecym7t2q1mDHS/+ziZloiaTgDBJwd1k9xqe1bHmp67nTv34Ntvd1R2+/YdNGOg+93HybRE1HQCaupOzkpAAWt6RBQh6nhwg4jIvgJq6sZ3h9fBDTZ1ici+2NQlIsdhU5ci3vLlm/Hqq8vxyivLsWzZT6bUt6+/3qSnlU76ayLzknnKtPIcZB8B1fiqn8fHpi6Fvw8+2IDevXORkPA0rrzydVx11et6uEePKXj7bc9v8nffXY+TT34ap5zyjJ5WOumXMhnnrrCwVM9D5iXzlGnlOWR40aKNZioKZwHV+PibG2Q3eXlf4MILZ+ia2ODB3fDAA+dj0qTz8Ze/dMe6ddsxcODLeOyxIj3tlClL8ec/v4jVq3/GZZd1V9NdoDvplzIZN2WK69xLeYw8VuYh85J5yrzlOeS5LrjgeTz7bLGelsJXQAc3pNYXEb+5sWsX8PHHwPbtpiCCbNvmWjZZRodbvPhb3HRTAU48MRrFxemYPXsYxo/vi9tv74tZs9JQUnIjunQ5Grfe+o7uRo8uRGxsO3z11Y14/fU0Nd05upN+KevcuZ2a5u3K6bt2PUaF3Cg9L5mnzFueQ55LnnPUqPn6NVD4CiD4IuQ3N9ar5spZZwFPPQX07esKiUghyyLLJMsmyyjLGkmC/ML6xz/+qz+nc+ZcoZqgMaa0ioTeW29diUMPbYZHHy1Cs2ZRmDv3SnTvfoyZooqUvfnmlXoamVYeI4+Njz/KTFFFnkueU577//7vv6a0FvzCahJRa9asqejSpYsZ9EVqe3Mw2KNpK2E4HJixBJn1uFHBxIcex4RxY8xQA8vIwNy9JyG9oLlcSgHs3g1ER5uR9bd79z78+uteMyQ71EehZ8/2un/Fii3o1Wuq7heHH34oWrduYYZCYMcOqBkCLVogL2U/BrXcADzzjBlpcxLigwZBvYFQVTUgNxc4+2wzsjq5PLBr16eQmtpFB1RN/vrXN/DyyyW6SSu1u5pcfnk+3nhjFa66KgEvvXSZKfUtNfVlzJ9fql7LLT4DspIEXno6cPLJ8oGBSl+o6qUZGVmKi+ve/I+NjVWbanRQebF27VrExFT/0hObNm0KpMbH39ygJvTww5j7p78i5v3TEfOD+nvB2+oD/S+/3ZlnPqcfduqpx+q/NenRw/XFdMopvjcQdyef3EH/tR5Tk969/6D/nnHGsz5fY2Uny/Lj3/SyyTLikUf046jhBRB8EfKbG//8JwZ9/hI2nf8FNv1R/X3vYpX8t4asGzfuHPNEtZNpfc2jzp0siyyTWjZZRtx2m3kmZ2re/BC0atXMDPknzVaZtkWL2jcDa1r5Wxt5bpmWwlcATd2G06hNXSH7UZYtk69toF07UxgaDzywGHfe+b4Zqrmpe//95+OOO/qaoRCR/V8rV0pVB2jTxhRGgCCburYiTd2MDNk5yKZuDRq9qavvyuLjFvOFGarWl2HDs/gkEGSjCXHohQVZJlm2SAo9IUHwySfAzTfL4drICT0hyyLLJMsmyxihoReOagi+MszLB7JnZKrGrqfk3AKk583hCczUOPiFRSFWQ/DVdHt5OeDBy9iIyJ5qCL6awo2/uUFE9lVD8MUhc0ICsqqdqCzn9aWgJHssL1kjIluq8eAGknNRUdodEz0uV3NdxbGkPmcuExE1oZqDT8RlYol1qZrpclnVIyIbqz34iIgiDIMvRI48sqW+M4fVuV8NIP3u42RaImo6DL4QueWWM7BxY2ZlJ3cAsUi/+ziZloiaDoOPiByHwUdEjsPgIyLHYfARkeMw+IjIcRh8ROQ4DD4ichwGHxE5DoOPiBxH/+aG6Q+ZQH/Do9F/c4OImkTY/eaGjLQmsPrr0xERhTs2dYnIcRh8ROQ4DD4ichwGHxE5DoOPiByHwUdEjsPgIyLHYfARkeMw+IjIcRh8ROQ4AQbfekwd0BaZC6r627ZtiwFT1+uxRER2EmDwrcPapSMwcIDqXfAExvechfLyWeg5/gnoLCQispGgm7oL5k9Hny6xqi8WXfqsQCkrfURkMwEG3wDkzAKGqubt0OkjcNuozq6aH4bgYtVLZDtlOUhKykGZGSRnCbzGNyBHNW/LVZejYtAMLxiFiMm9wgxERUVVdRmFZkQDcd/wuBHWnbx3lestAw281riuIkTgwbd+KgaoGl/btgOgj2ksyETbAVMRCS3dspwkRKUABRUVqDBdAeY07EYUl4klSzIRZwapjuR9LM1GYmI2SitykWyKiWoSYPCtx9SM2RhSXI5ZI0zRgNGYhNl42/bJV4Z5+UB2qedGk5zrGtahWFmjSEKOfNXrb/0MZCRZ5VGwKog+p9cKkVFZrqafZtUcypAzPAtFRVmIV+VJ8gBftRhT08jJcCuj6jzeJ/NeW2+W+/sar95zq8y9Bucx7LXOCrmuIkWAwSdHdXsiPhL355XNQ35RArr6qXrFZS6prAVWFCQga7L5GBeVoPsMqzwdeSmuD7jv6dUGk6SrlJXjcvvpuShxyJxh1VgqsCSzFBlqo0ww05ZmlyDF2nLVBrdqsJSzZlOjyvdJdbJuJkqQqRBze18rpJZoJvfNxzpL5rqKFAEf3Bg4Yjrmu5+7EkkHNxK7I970VuP+jZ6SB5SscdUGEtOQaoVl8mCkowRrZISv6SVckY2xgWwBZWtQojYsa9q41DQk5plmt1s51cD9fYrv7go4r/e1VoGsM64r2wp4H9+AnGJ0eUSO6i7F+NPaou1QYFYkHNyI64qEonzMq2zruJEQi89HWqn51q+tlrAxyOmJqEkEfnBDRdyoBXJU1+rM0V3bS8bYbCAr3nNfTGGGGXar2ZXNy3ftF/JWOAd5Ml1H1e9r+rhUpCELVivZp6JVKJW/OoirptXzSB/M5lJ9eX3BeaxL671XAlpnXFe2V0vwLUBm20z1v/x1Xabm2ck4+5P9cnr/jNVEVV0K1Ac4LhMTElw7sqVs+KqEqhqc+sBb5fqIsByh9Tu9a99QSYqZXnUZi/QIF3lcep5+/qSceOSqmqI1bXxWAgpyuSn5pWvl1gGHmg4kJCNX9rnGe60b9d7PcFv3Na4zmTnXVUSIUrU3/bu68luTofh5SJlPxP+urmxsw4EZPB2FKCBh97u6pr8WVs2PiMj+Aj6qO3rSCs+juk6mmjs8+ZjIvgKu8T0xfimmD43MfXxE5CwB1/hyKo/mRuKRXSJykgCDTy7VHeBV22ONj4jsKYimbk/MKi/GpD4j1F9V2yuehD4jBrLGR0S2E3CNz6Uz4ntavRdjyIpHXHdqISKykQCDr+puy7FdrKO7EXzjAiKKaAEGn1yutgBy4+XOoxZg4HzZv/cIuhTz4AYR2U+QTV2XATlyRNcVhEREdhPwwQ1euUFEkSLA4OOVG0QUOQKu8fHKDSKKFAHX+HjlBhFFisAPblT+yhpre0RkbwEGn/zK2nj0nOVW25MfGI+Qn5ckImcJMPjkZOURGOjero2Yn5ckIqcJeB9ftV9Z45UbRGRTNQSf5+9sDJ0Or6O6Q6GKiIhsp4bg83ck173jUV0isp9amrrO+JU1InKWWoJPan1Sq+N5fEQUOQI8uOELr98lInuqR/AREdkTg4+IHCeAgxu+DmpIx9NZiMieosrLyyukZ9OmTYiJidGF9SHz6dKlixmq2cSHHseEcWPMkPM88cSnKC//HYcd1hxRUVGmFNi//yD27j2A887rhHPP7WhKKZxw3QWnuLjY9AUvNjYW0dHRQeXF2rVr/eaZZBSDrwkdf/xj+P77X8xQdffeex7uuqufGaJwwnUXnHALPu7ja0LHHNNa/33mmVQ8//zgyu7660/T5Yce2kz/pfDDdWdvDL4mdPjhh+q/V17ZC8OHn4K0tJ767znnnKjLmzfn6glXXHf2xrUTJrZu3Y2kpGl48MHFpoTsguvOfhh8YeLHH3/F//63E3fc8T6ee67u+0MoOE8++Rk6dsyp7Nau3WrGyH6irR7jZFpfuO7sh8HXhA4e1MeVsHPnHpx4YjTeeGMY2rU7DIsXb9TlFRWu8dRw5L3/9tsdld2+fQfNGOh+93EyrYXrzt4YfE1INiZxwgnZiI5+COee+x9s2/abKnGdHrFmTVXtg8IL1529MfiaUKdObXHccUcgMfF4nH32CZXdKafEoEWLZvj3v79UzatPzdQUTrju7M0j+OT8lvp2FLiPProW3333DyxZMlL3W92yZTdg6dLr0Lv3H5Ca2tVMTeGE687eKoNPTvYLRRepli/fjFdfXY5XXlmuPtw/mVLfvv56k55WOumvicxL5inTynNYTjnlWHzxRTpOOqmtKSG74LoLf2zq1uKDDzaob+9cJCQ8jSuvfB1XXfW6Hu7RYwrefrvMTOXy7rvrcfLJT6sP/jN6WumkX8pknLvCwlI9D5mXzFOmleeQ4UWLXDvIiahhMPhqkJf3BS68cIauiQ0e3A0PPHA+Jk06H3/5S3esW7cdAwe+jMceK9LTTpmyFH/+84tYvfpnXHZZdzXdBbqTfimTcVOmuE6HkMfIY2UeMi+Zp8xbnkOe64ILnsezz/K0CKKGwuDzY/Hib3HTTQX6VIXi4nTMnj0M48f3xe2398WsWWkoKbkRXbocjVtvfUd3o0cXIja2Hb766ka8/nqamu4c3Um/lHXu3E5N83bl9F27HqNCbpSel8xT5i3PIc8lzzlq1Hz9Gogo9JwTfLt2AR9/DGzfbgpq9o9//FefizVnzhWqCVp936WE3ltvXamvyXz00SI0axaFuXOvRPfux5gpqkjZm29eqaeRaeUx8tj4+KPMFFXkueQ55bn/7//+a0prsW2ba9lkGSNRkOvOViJ93YUpZwTf+vXAWWcBTz0F9O3r+qDVQM7Y//zzH5CcHI+TT/Z/wCYu7ihcfnkP3X/JJV19hp5Fxsk0Qh4jj/VHnvPii+OwdOkPKC1VG0ZNZFlkmWTZZBllWSNJkOvOViJ93YWxyttShYqc0hJ2t6XKyMDcvSchvaC5nI4P7N4NREebkdXJ/dTkXmt33nkuJk7sb0p9e+CBxWq69wO6DdG9936Ae+5ZhPvvPx933KE+8DWYMGGhmu5DtG3bquY7fezYAbRuDbRogbyU/RjUcoPcMsSMjABBrrtg7d69D7/+utcMydH7UejZs73uX7FiC3r1mqr7hdyYoHXrFmYoBCJ93bnhbalsQu6u0apV7bcWklCSaVu0qP2ttKatMcgMeW7e4YOoYTijxidNiEGDoL6+gZISIDcXOPtsM9LmpLmkakVISJDqCjB3LtC5sxkZARp43Vk1dktNNb5AaupBifR154Y1vqYgH6ZPPgFuvlkO10ZO6AlZFlkmWTZZxkjbcLjuqAE4py3Vpo3rg9aunSmIILJMsmyyjJGI645CjDuRiMhxGHxE5DgMPiJyHAYfETkOg4+IHIfBR0SOw+AjIsdh8JGjHXlkS30bMKtzv/RQ+t3HybQUGRh85Gi33HIGNm7MrOzkdmMW6XcfJ9NSZGDwEZHjMPiIyHEYfETkOAw+InIcBh8ROQ6Dj4gch8FHRI7D4CMix2HwEZHjMPiIyHEYfETkOAw+InIcBh8ROQ6Dj4gch8FHRI7D4CMix2HwEZHjMPiIyHEYfETkOAw+InIcBh8ROQ6Dj4gch8FHRI7D4CMix3F28JXlICkpB2VmMOzZ7fVSdVyHYSEygk8+TFFRiNJdBgpNcYNp6A+v+/zr+FxlOUnm/XB1STlhuKkVZni8xqiMBl5zIXhfA+aUdWhTkRF8cZlYUpqNxMRslFbkItkU25Ysz5JMxJnBYMkGE5+fpt6LClTorgAJWfFhteHojToFKKh8jRUowJyG/dKq5/saFAesQzuLzKau+YbNyaj6tqysTMg461s0PgtFVpn7N7LHcCEyrOn1fMqQM1w9rigL8WpYfxDd52nVOD1eg1ct1H3++rHWeDXvJNVfOd7ruaZv0VPN87VclQoxOQvInuG+0SUjV30xIH+eWaamVoZ5+eo1lnp+SSXnuoY9azpJ0Nu6fk8ykJFUfdl9Tq95rbtpft5XrkPHidx9fOqDtmqw+bYsSEfeRPkQqg1BhV1CgSmXWqKZ3Df5EOtqifnWrUBuchwyZ1i1ywosySz1mGdpdglSrE9y5WvwqoXGdUVC0SqUqt4ylQAJ6cAc/ZBSrEJ3xEuv5vVcI9r7WS43ZWtQkpiGVO+qhttzNrmyecgvSkBXP9WhuMwlle93RUECsiZb72cJus9wW/YUV9j4nt7Huuun56JwHTpd5Aaf+qCNtT6p8d1dAac/UG7ltZENFLVM7zXPuNQ0JOaZJpvf50rG4PQSrFGf9tJVCRg8tjtKZKuReSV0dfuW98HXctlRons4eHGvfaXkASVrXMHgHgbJg5EO13voc/pA1p2F69BxIjf4wpz6vGNVaSHmlKgAiEtFWona0EpXIWFwIFtqDXStIB/zPKoQit64awibxuTvNQoJsfh8pJWaGlFttfKNQU4fQo5ehzbnrODz+kBJE0Xv4xNuTYjKcvkwIwtWS8uDNb2eZ9U0+rHpgz2bRT5IrQITJ6IkLVXVDuIgg3PmAN19faqDat4kY2w2kDXcvflkmvgTGmnHfq3Ma4z33G9WmGGG3Wp2HuvIXeEc5Ml0HVW/r+lrWncWrkPHiozg07UEawey58bkKRm5sg8o3tUsGq6aKLp2EJeJGbJfxzSXKsvVR0z2z5SkmGaU6vSuHzX9hPQ8PX1STjxkp7M1TXxWAgpyA/jGVxubbKFpZouVwTxVc6i+X8ftucyO8drIPq/StHy9M931ul37ugJ5WY1Fv0a391y6FKiwkeVNcB0IkLKqdaHo9Wuml0WSo6Z+p/ex7hbpES5ch44WVV5eXmH6Q2LTpk3o0qWLGarZxIcex4RxY8wQNQj5UhgOzGis0zgaSqQsR11EwLIXFxebvuDFxsYiOjo6qLxYu3YtYmJizJAnySju44t0HjUi91M9yDa4DkOOwecAyblmx3/FEmTatcqgNv5GO/k4DEXEOgwjDD4ichwGHxE5DoOPiByHwUdEjsPgIyLHYfARkeMw+IjIcRh8ROQ4DD4ichwGHxE5DoOPiByHwUdEjsPgIyLHYfARkeMw+MgeKiqAadOA668H3nvPFNqQvHZZBlkWWSZqErwDM9mDCoovZ7yDDzv3B+bNA7KygDZtzMjA7dy5B926tcfQoT1MSXBmzVqJ1au34MgjW5qSIOzaBWRnA6mpOHf9QvQefhEwcqQZGdnC7Q7MDD6yB1VLenz/6cicvskU1F1qajzeeusqMxScSy55WeVu4D8b5E/OiBiMaf4F8OyzpiSyMfjcMPgoYKqJuPm2e/HtyX2BpUuBJ56AqnaZkYHZt+8AkpL+jeHDT8bzzw8xpcG5+urZmDHjayxZci1atGhmSgO0cycwejTQpw9O+HoxYh65G7jgAjMysjH43DD4KCjLl7tCLzkZOPZYUxi4vXsPoGXL+1Xrsjeee+5SUxqc6657U7W6v8SePXfi0EODDD7x009AYaEOP/TqZQojH39siKiuJCiuuaZOoRc25LXLMjgo9MIRg4+IHIfBR0SOw+AjIsdh8BGR4zD4iNzICcrSUWRj8FHEue222/DBBx+YoSr79x/Uf5ct+wlvv12GAwdcw+62bt2tO28yrTxGHiuseYlXXnkF48ePxzXXXIOpU6eaUgpnDL6Gsnmz65pM6aSfGkVBQQGWyrl+Phw86Dpl9YsvfkRy8kvo3TsXJSW1Xwki08i08hh5rLDmJa688kpMmjRJh94LL7ygQvKAGUPhisHXUMaNwwOHnKc76afGkZKSgvPOU++5D4cffii+//4fWL36ZkyZkoItW3bjnHP+g+XL/X8xyTiZRqaVx8hjZR4yL29fffWVKj8czZrV4cRmalQMvoaybx+WLN+hO9UuMoXU1P74xyPQtevRGDWqD4qKRqJly2a4+uo5lTdKGTgwXndCanXDh8/W03zyyXX6MfJYmYe3nTt3YuzYsXjsscdMCYUzBl9DefBB4LvvoKoHrn4KO506tcXtt5+D4uIfsXjxRl32wQcbdSc++uhbfPnlT3qajh2jdZkve/fuxXXXXYd7770XCQkJppTCGYOvoRx/vOuypJ49geOOM4XU0GQfnxzYeP7557FhwwZT6t+AAbH6b1GR+pJSdu3aqzuxZMn/9N+LLorTf/2ZMGECdu/ercJzsQ6/LVu2mDEUrhh8FFFkH9/ChQvxn//8R9XoOplS/1q3bqH//v77Pv3X3e+/u3ZRHHZYc/3Xn4cffhjz5s3D3Xffrbv27dubMRSueHcWZceO39G3739w9NGtfe60rqvPPlPNXOWMM0JX4/v11736dIvFi69BdHQrU0p19frrq/CXv+QjP3+ovjnpM898rstvuOFPqmwFhg17Da+9lobLL++uy6lueHeWMHTgQAVKSjZj27bf9PlaoeoqKip052tcXTt5jfJa5TVT/cj9+R5++CMcc0xrJCe7mrMScFbIpaTE63GPPPKxnpYiB2t8iuzTOfzwB1XzaBBGjDjVlNad3PdN7tU2cODLenj+/Ksqy+pr+vRluOaauarmdzvatAld7dRp/ve/Hbjxxvlq3ZRixozB+PvfT9Hlzz7rqplcf/1p+u8LL3yF4cPn6CO9Tz89ECec4P8gB/nHGl+Ee+CBDzFgwAsqTKv2GUnz9MILZ+DBBxebEmoKss8uNvYJdOyYg5NOehzvvLMOTz6ZXBl6wqpZW2TcE09crKeVx8hjZR7W/j+yJwZfiJ17bid9ekRKykvYs2e/7qRfLnXq27ejmYqagpyXJzW977/fqXcVHHFES3Tu3M6M9S829ig9rTxGHivzcL9yg+yHwReAn3761fRV98032/Hbb1W1u759T0RBwV91+H3wwQbdSehJ2TnnnGimAnbv3qcf64vsF6zpOalu5Aju3r0TdPfee8Nx/PFHYvDgV1X/ejNFdTJOppFp5THW462jwWRPDL5arFy5BV26PKnP7vf244+/6MuZ5BpO94vWJfxmzRqqawjSyRFD99CTHeUXX/yiPpLsHXASevJc8pzy3BR6hxwShfPPP0kfGe/YsS2uv/4tvQ9WpKX11J2QMhkn08i08hh5LNkfg68GZWXb8Oc/v6i/3WUn9803F5gxsoP0V73fTpqycqLrFVe8Vhl+sk9v0qTF+nHSPfjgR7pMSOjJKRKffvq9qinu1/sDN2/epcdJ6N18cyFefPFr/Th5bnkN1DDkt3HHj++rat7lePddV61PTmGRTkiZjBs//py6/Y4uhS3nBN+aNVBpJLfmMAU1k8Dp3/95fZ3m0qXX48knUzB16lIdflJLO//857F162/48MNr8Morl+PNN9fo8Nu+/bfKfXrvvPN3vP3233SzV47wyjgJPTmS+Oqrl+vHSuhdcMEMHaQSek8/vRRPPZWin1OeW15DwOEnyybLKMtKATn77BP0X7k0zZusN3H22VW1dYoMzgg++T3T//s/fH5kN0y+5CE88sAHmDx5SWWXk/OpnqywsEwPP/TQR5Wht3Dh1foUhptu6lMZft26PaVD7/33r0aPHu1x+eU9KsOvU6fHdegVFv5Nb1Tu+/xk3Lx5a3XoDRnSHT17ttfzkPDr2vWpytCTi+HlOeW5rfCT1ySvTV6jkNfsvgx6mdSyyTLKsuplJiKfnBF8P6pv7q5d8QmOxz0/98K993+Ee+75oLKTZqmYO3eNHr733kX6Cg4r9CwSfhMmnKubt/PmXaVDzyLh98wzqZBzAmWfnlWTEBJ+Uibj8vIu0aFnkfCTee3ZcwB3332eDj2LFX7yWuQ1yWuT1yjkNbsvg14mtWyyjLKsepmpVh9/7Loet3fv6j9Zedppf9B/rWkocjjnBOZ//ANYvx5o1w547jnA7Z5p/k5g/u677zBmzBj1kHa4//77caz5Pdfvvtupj/L5Iqc6+DvJtaZx1jxXrlypanCT0aZNG9x6663Vrjf1ewKz3Pzyuuug2tNy/gXw6KNmBPmzc+cenH56nnrrDur77MkJ5nJljDjqqMP0wQ2p3Tdrdgi++CKd+/nqgScwNxW5T9rs2VDp5hF6gWjevLlqclZ96P2FnvAXbKKmcdY8e/TogauvvlrV/EYFdJF9JVkmWTZZRoZejeQcvPff/0YfVd+4sRzPPntJ5VU17gc3pEzGyTQyrTyG5+9FBmcd1Y0K/lQEudvHyJEj8e6775qSMFeHZXQKOXfy0EMn6k4OKEkte86cK1R/ZzNFdTJOppFp5THW42VeZF/OCr4gHXnkkfjxxx/x3nvvYdCgQaa04UlNj7c2Cj05B09q3ccdd6SqIEfhl1/2YN262o+YyzQyrTzm+OOj9Tx4Pp+9MfhqIMF35513Yty4cepbvvFuCMDgaxitWjVXITZaNV0zsWFDJi66KBajR7+tz9G0yP486SwvvPC1nkamlcds2DBGz0PmRfbFu7MospM7Ovoh3HDD6Tj33PC+nvbDDzfimWe+wI4d47izvZ7kZPKzz/63Pkn5m2/G6KPnW7a4TiZv376NPulcbkwg1/N+9NE1aNGi/nfXcapwO7jB4FPkw96hw7/MkD1s3nyr3jipfngj0sbB4HMTLsFXod6BDRu2o3XrQ9W3eni3/vftO4jdu/eq5nA7HscIgfXrt6sN6wncc08/fR6le/BZ53RK0zaQu7iQfzydJQxJgJx0Ujv1RrXR52+FcyevUV4rQy80rKOzrVpVv9vKYYe5yuSaaoosDD5ytAULXDcnSEw8Xv+Vk8KtE8OtsnfecV0mSJGDwUeOtWFDub4rtlyaZt0k9rzzOupOyK3E5FI2ubuOTEuRg8FHjvLDD79g9eqf9c0mEhOn6cvSnn9+cOWuA7lzjnRCztWbMWOIvo5appXHyGNlHmRvDD5yDDk95bjjHkP37lNw000F6NChjb7BaK9eHcwU1ck4OZWlffvW+jHyWJmHdX9FsicGHzmGdbXF6af/AYWFcquwdCQk+D7y506m+fLLDP0YeazglRv2xuAjx2je3PVxP/XUY3HxxXEeV2hY5EflpfMm08pj5LHCmhfZE9cekRs5iVk6imwMPiJyHAYfETkOg4+IHIfBR0SOw+Aj+1i+3HV7/Z+q/xSkbchrl2WQZaEmw+Aje3jvPWy+ehQ+/7AMn184HJ+/vxqff/5DUN0XX/ygZyX34asr67EyL1/PUWMnr/mCv+tlkGWRZaKmwdtSkT1cfz0e3386MqdvMgV1l5oaj7feusoMBeeSS17GvHmuS9rqI2dEDMY0/wJ49llTEtl4Pz43DD4K2LRp+HLGO/iwc3+o5AGysuRWKmZk4ORu2926ta/zuXqzZq3E6tVb6nb36127gOxsSV6cu34heg+/CBg50oyMbAw+Nww+CpjcLfbf/wY++QS44gr5+TMzwmakefvqq8BZZwHXXuuYX8XjjUiJ6kICQmpH0jS0a+gJee2yDLIsvJtsk2HwEZHjMPiIyHEYfETkOAw+InIcBh8ROQ6Dj4gch8FHRI7D4CMix2HwEZHjMPjIGcpykJSUgzIzWC+hnBc1icgMPvlgRkUhqrLLQKEZ5Vd9P8zuj2/IDcPuG521bjI810hhhiqrbblCvezWawn0M1Jfdl93ESRya3yJ2SitqECFdAVASmN+4OIysWRJJuLMIHlJTEd6yUTkWCtEBcLEkkQkmsFGI+upNBuJ+rOSi2RTTJHPGU3d5MFIL1oFfRc1n9/yZcgZnoWioizEq/Ik2SI9pktybaTmGztHaidmnKvi4vX4O++o+mb39Xx6PhnISLLmoR5f2S8TmGkqH2eev06vsxFqMkHrjsFpQP48vVAonJyFhDRVIMxrd41RKodreI+F2+PKcpLM++H+3gXA431zdT7XR7x6HVaZn9eglgoZ1vR6PrWtO/fPhue681ge9+ejOnNE8JXlTEReYnfEy4dRfWgTClw1wdLsEqToT3YcMmdY3/wVWJJZqqZbhQlWjbE0DfnDzQdOfXBXDbZqkunImyjlXo8f0V6mVPw9n1JUgu4zzDxShgNWv56fPM7X89fldYZnTSY+cwISsiajUG3oE0uyMTbVjPDL33tcXVzmEtf7IV1BArImW+kVAJ/r13M9Vkgt0Uzum3yRpQDW9KrLTfa17vx9NtzWnXp/hmclqFm5pitIMF/gVC+RG3zmm1W+JePz01AqTc+yNShRH7yxJgniUtOQmDdHf6t6kOmQhxTrW1a+4a0ao9vjEd+95g2gpudLTEOqtIVlHu79Mq6m53cX6OsMS8kYnK5eu2z8E0K8W8C9JpWSB5SscX0ZBMLX+vVaj7Uqm4d81DJ9jZ8Nt8fGdUWCXseu2l9yLpvkoeCMfXx12d/m/njdNfIHLtDnb+rXWQ/JY6XmlI7BoXzBEnrx+UgrNe9HrbWzcJeMXL1eB2OODvNw3HVhP87Yx2eRb09VE7RaPmXz8lGUPrgqKKzaktd0AfOuldX2fP7U9vz1fZ3hQg4u+Apqt/dRv2emX3N/j/1NZ9WglWqPrwv9PufD7JL0nKev1xCXijT4WS9+1p1+rK/PhgryDL2TUgKwFNmJJVgTcPWV/HFW8MmHR9UASlJczaB42XeSaz5qaiOcIE0vVZ6UE+8xne5q26ns/vjpW0xhDc9XI8/HeTx/fV9nuFPLN0P2d5nlGb4qoarG5r7s81J9TyfTJFTt5vB4vDddO7QOONRUk1LrQ/YVxld/Lt+v1bU/z329uHYl+193fj8bKiDVE5v5xCM/bQYyQ7pfwJn4mxtE1OD4mxtERE2MwUdEjsPgIyLHYfARkeMw+IjIcRh8ROQ4DD4ichwGHxE5DoOPiByHwUdEjsPgIyLHYfARkeMw+IjIcRh8wVixAthi3XKKbOPzz4ERI4D/+z/g559NYR3Iuv/HP1zzknmSbTH4ArV5M5765+s496xc9Os33Wd36qnPYPr0ZeYBFBY2bsS+q6/BzOan4L0thwOXXmpG1MGgQXjv5yP0vGSeMm+yJwZfoDp0wPVX90LB9AGYP/8qn11aWk+0aMG3NKwsXIjfLkzGFdN24u71HYG9e+tWa1dffPJYmYfMS+aJDz4wI8luuJUGoeXQy3B43zNx+OGH+uwOPbSZvlMuhZE+fYAPP9S9FSa8cMwxejgo7dvrx+p5CJnnn/7k6ifbYfBRZOvZExW33ebq37EDmDUL6tvJNRwMeYw8VuYh/vlPPW+yJwYfRbyogQNdf+Pjga5ddX+dqMfqeYiUFNdfsiUGXwisXLlS/9279wDuuecDvPrqcj28fftvqvtd9xNR+GDw1dPOnTuRm5ur+8eP74svv7wBb765Rnfr12/XHRGFFwZfPR155JHo27evGQLatGmBhx++EFOnLsUf/3iE7ogovDD46klqfKtXr65s7orffz+Ali2bmyEiCjcMvnqSGt+dd96JHj164Lff9mHVqi246ab5uO22JPzwwy+6I6LwwuALoby8L3D22f9G+/Zt1N8T2dQlClMMvhAaM+YsbN16G4477gg891zdfzme6m7Lli0oKCgwQy779h3Uf8vLf8d33+3U/XX166979d/ly82JzGRLDL4Qkys3/u//EvHKK8vZ1G1kixYtwjXXXFMt+H7/fZ/+u2LFFpx4YjYuuugF3V8XP/+8W/+Vmn2XLk/ijTdW6WGyFwZfA/jhh19xzDGt2dRtAu3l0jIv0dGtcO+95+H228/Bued2xIIF63Hmmc+isLDUTBG4sWOTcNdd/fR12VJ7vPzyfNxxx/tmLNkFgy+E1q3bhpkzV+Dmmwv0hkaNq1+/frj66qvNUBW5jlrCatKkC/DBByPw7rt/10fdhw17DWVl28xUgZHdGbJuZ878C9asuRl/+tMf1XwX8648NsPgC6FPP/0eOTmf4A9/OBxxcUcF39Tdvx/YFtyGSMG74ILOKqgG4Zdf9mL8+PdMafBOOCFaNav/iqOOOgz//Oe7+qg+2QODL4SuuioBRUUjVc2jEx59tKhaU/e999bjllsK8Y9//Nd3d3E25o6eyvBrBJdc0hU9e7bXV9js3LnHlAavffvWuPba3ti8eRf++991ppTCHYOvAVx5ZS+f+4/+97+dqlJ3AJde2tVnd8nAOPTsdpTslDKPoGDce++96N+/P6ZMmaL/1uaMM47Dnj0HUFpavy+aPn3+qP/ySK99MPgagGwAsbHVm7pyvz4pP++8Tj67/llDEHfnKKBZM/MICsbdd9+NiooK3S1cuNCU+nfIIa7bUx086Drdpa6su1yppyWbYPCF0Oef/4BHHvlY7zeaOLE/j+qGuS+++FHfMTs+/mhTUjdffvmT/tujR/UjyhSeGHwhtGDBOn1kt7Dwrwy8MPfuu+uxbNlPSE6OR9u2rUxp8OTWY9OmfYl27Vrhz3+ONaUU7hh8IdSiRTN9YEPOGxPuTV1p/sopD3v27Mfzzz+PMWPG4MCBA3ocNS45+v63v72Bww5rjkmTzjelwduyZRcGDXpVH9iQGr6cNkP2wOBrQFZT98svf8SoUfMxbtw5GDnyNKSkpKBly5Zoxn15jWLXrr36XLuJExfh0ktfQVLSNH352gsvXIaePTuYqQLz9NNL8cADH+L6699UTeQnsXjxt7jppj6qO8NMQXbA4AvGb7+ZnuDcf/9itcGk4vzzT8Kxxx6OWbNmoXnz5qzxNZIdO/boqyvuuusDvPXWWhw8WIHHH0/G5Zd3N1METtblnXcuxHPPfannO2hQVzz1FG9DbzfNxo0bd4/pD4ldu3bh6KMD21n84Uefot85Z5mhMLdzJxbe8ihen7UCS77ZjyVL/letW7RoA046qR1OP911esPatVv1SbLz55fiqqt64YgjWuryPn364IILLsAhh/B7pzHI9dPSrO3b90R9ZP2bb7brcypPPvlYdO0a3IGNli2b4ayzjscJJxyp9+eWlGzWNy646CLu36vJjz/+aPqCd9RRR6FVq1ZB5cXWrVtx+OGHmyFPklHc8gLVogWij2yJP57QtrIJ693JSbFybpjFKr/mmlNx330fYv/++p02QXUj+94mTOiHe+/tj3fe+bv6groGbdociiuvfA2rV/9spgrMzTefoS9/mzFjCEpLR6sQPE6frP7ss7wbj50w+AJ12GE4LeefuOqhv+orNHx16emn49RTjzUPqCLjduz4XW2AkzB58semlJqK1PxmzBisvvn31esGA3Jp4rx5V+kbUsgpTLt385I1u2DwBSPI32O1jurKaS6ykW3cmIWxY882Y6kpyWksJ58co4Jrrf5Sqqujj26NkSN769tV8ZI1+2DwNSCrqZuT8ykef/xixMS0MWMoHMidVeQnQet7yZq1T3fFCl6yZhcMPiJyHAZfA7KaupmZZ2LMmLexadMuM4bCgVxiKEd54+OPMiV188UXP+i/wZ4TSE2HwReMIK9Ct5q6AwbE6t/b7dgxmwc3woTcPefrrzchNbVL5ZU2dbF16259yZoc4OAla/bB4AvUb7+heMxDePmfL+Lll0t8dvIra8uWuS5YdyfjZOP69dfxPLgRBuRqi+HD5+gvowceqPslaz/++KsKzpf1gQ25u3Pr1i3MGAp3DL5A7duHnb/sxQ/f76xswnp3b721Bp999r15QFVT9z//WYa77joXzZvz7W4KcoKxXK52990L9Q8N9ev3H8hlbK+88hd063aMmSowTz31Ge67b5EKztmqifwEPvnke/3jUtdff5qZguwgqry8PKR3Edu0aRO6dOlihmo28aHHMWHcGDNkA3LJ2mGHmYHq/vWvJbppK+ftiR9/lBsUROnf4Ljvvv76jr/U+OTL57jjHjNDLs88k4qMjNPNUOBkPjI/i1yyNmfOFWaI/CkurvsJ3rGxsarFFB1UXqxduxYxMTFmyJNkFKsgwagh9Gpy5519ceON8/D++9/gp59+NaXUWKKjW+om7X33nYdLLumib0A6ZkwhXn89+J+GlHV5//39dQ1P5jt37hr9xUb2wuBrQFZTt3fvP2Dq1IF46KGPMG0aL21qbHJ52vjxffVla2++eSWWLBmp78H397+/EfS5dzfe2Ad33HEu8vIuQWnpLfoqkClTlqruMzMF2QGDr57k3npytxWxb98BfaMC60oA66iu6NWrA0aMOFX/rCE1rTPPPA4vvngZfvttvwrEul+y1r59G1XjuwIdOrRRobpQ70ske2Dw1ZP8juv27dv1LabktBX5TY2LL37RYz8QhZ8LL+ysr6uW01rk3nx11a7dYfqSte3bf+clazbC4KunpUuXomvXrvqmonIJ1G23nY0HH7xQ1wCspi6Fp9NP/4OqpR9UTdatpqRuevd23Zhi5cot+i+FPwZfPa1cuRJFRUXYu7eqmSPNWrlXm3tTV8h1oVL+wQcbfHYLH3sDZROnQFUfzSOoIckNSUV974tonddu/WobhT8GXz1JU3fcuHE49NCq31t45ZXl+u4f3uTmlc2bN9M/Yu2re6tgHVas3qZvekoNT865lBuL1veStaVLrUvWeLqSXfA8vhCSKzSeeOJTHHfcEZg5cyi++kqu4ojSTaqASE1PQq9dO1NADUVuQS+/vzF0aA/k5w81pcHbsmU3unV7Sp+cvmHDGBx2GK/e8IXn8UUwOVqYlXUWfvppF8rKqjd1ayU/PsTQa3DvvfeNqqnPxhFHHKovNaur//1vB1JSXsK2bb/h4YcvZOjZCIMvhOSI7rBhvfSPz9x99wemlJqanGYil5nJXZL79ZuOCy+cofe3zpz5F8TFBdfMffzxT/S6HTbsNXTt+pS+w4ucIyinKpF9MPgawB//eLi+cJ1HdcODnFcpYfXggx9h8eKNGDCgMz799Dqf+2FrM3nyEh2i+fkrcPzxR+L119PqdaMDahoMvhCrqKjQPz4j1+sG3dSlBtGqlasJKgcfvv02S//gUF3vnSe3nxIff3wt1q69BZddFvxPVFLTY/CFkDSDjj76EXz//S/6pFYKDy1auD7mcpma1NLqQ36xTcgpS2RfDL4Qkl9Zk+tAt2zZpWoE37KpSxSmGHwhJEf15P5uU6YMxCOPuG5RxaYuUfhh8DWAVq2aYc+e/WaIiMINgy/E5Pdz//nPdzFqVB82dYnCFIMvhCZNWozevZ/BpZd21V3nzu1U19aMJaJwweALIfmpwnvuOQ9XXNFLD8sti6QjovDC4KOIVzF/vutvaSmwerXurxP1WD0PUcDbzdsZg48i24oViHrkEVd/dDSQlhb07yNr8hh5rMxDPPywnjfZE4MvCHtmvYFfPvxEX/vpq5PrP+XKDQojS5cC556re6M6dJD9EcDPP+vhoGzZoh+r5yFknp9/7uon22HwBWrzZjz7/HIMvOZdDBz4ss9Ort+UO/pSGOnfH4e9W4hXRx6JeztvdAVf+zrcN8+EpsxD5iXzxHnnmZFkNwy+QKkP/s2P/AUffnoDFi0a4bNbtuwG3qUj3HTsiBbP/wfD9n+FC9r/Crz5phlRB+qxMg+Zl8xT5k32xOALRo8ecpW6GSDb+NOfgOnTgUcfrd/6k8fKPGReMk+yLQYfETkOg4+IHIfBR0SOw+AjIsdh8BGR4zD4iMhxGHyhUJaDpKQclJnBegnlvKhmXG+OZbPgK0RGVBSirC6j0JQb8uHzUV6Yocpq+1CG+oNrvRbdZahX3sDCccMz70FSjtur8vU6rfeK640aib2Cr3AOUFChr4etqChFdslEuG9TWmI60t3L1QdrYkkiEs1go4nLxJLSbCQmZqO0IhfJpthx1PpIyB9efT1543qjRmSv4EvORW7lJ7EUq4oS0DXODFbqjsFpQP481xZUODkLCXJXDeH97Vo5XIac4VkoKspCvNRQ7rzDz3TSm2RqA9Il1b5BW8w8cqQWYx5fWcGRcdY849XrsMr8vAbvmm9GodfrlxflPk+r5uLxGlxlHsvj/nwh0x1jJyQga3JtdSeut/Bab5HNhvv41IclSVb4HAz2840cnzkBCVmTUag+MBNLsjE21YzwKw6ZM6xv+QosGeH/Iva4zCWmxqm6gkA2aDfqA75qsPXYdORNlA+s2hjURpNg1WSltmEm902WP8Wt5luhvgy8Xn9mqcc8S7NLkGJtrZWvQb136v0ZnpWgZuWariBhlfo6aQDqC6sAKVWB4QfXW5ittwhmw+BTH5YlssIHY47fb+5kDE7PQ4p8iCZkqkeEkHz7Wt+0KXlAyRr1kQ6Q+oCPtZI6vrtrQylbgxL38tqUzUM+apnea55xqWlIzJvjqj24P1dcVyRAvU+mFpGc23BNu+Sx2SjRgVETrrdwW2+RyobBZ5GNpAir/HzVyYaWiHQMDuUnQjae+Hyklbq+aWv/lg93ycjVtQb5EpFQME2rhhCXiRlp+Zg8zwz7wfUWiEZcbxHKVsFXlpPhVsMrxJy8RHSPN4PeZCe1r6ZwUVWzoGxevmu/jMVtnN/pEtOQaqoi1R5fF/LtXZQPs2vLc56+XkNcKtKQBZ8tNWt6Pc+qafRj0wdXfy9UIGToN1Q2pFJkJ5ZgTcDVoODFqaYsssy+MH+43sJuvUUiWwWf+lwgK940V6Jkf8kSZAbTHpJah+w3MU2e4asSqr751bgJ0sxS5UnzUn1PJ9MkuHZEV3u8N13LsHZc1/SNrD68ss/JLJf7c/l+ra79QiUprnLp9G4g99efE49cVauxpomX/UFVR4WquN5QM5945KfNCO79DJosa7rpDwLXm6dGX2+RJ6q8vDyk90rftGkTunTpYoZqNvGhxzFh3BgzRESRqri42PQFLzY2FtHR0UHlxdq1axETE2OGPElG2XgfHxFR3TD4iMhxGHxE5DgMPiJyHAYfETkOg4+IHIfBR0SOw+AjIsdh8BGR4zD4iMhxGHxE5DgMPiJyHAYfETkOg4+IHIfBR0SOw+AjIsdh8BGR4zD4iMhxGHxE5DgMPiJyHAYfETkOg4+IHIfBR0SOw+AjIsdh8BGR4zD4iMhxGHxE5DgMPiJyHAYfETkOg4+IHIfBR0SOw+AjRzt44AA+ffJJ3a196y1TWkXKrPEyLUUGBh852sH9+/H26NG6W/r006a0ipRZ42VaigxR5eXlFaY/JDZt2oQuXbqYoZpNfOhxTBg3xgyFlzevvRa/79iBqEMOwWFHHWVKG9dv27ah4uBBtIqOxqX//rcppVDav2cPHmjVSvfHJSfjrwUFut/yUkoKygoLdf8dv/+O5i1b6n4KTnFxsekLXmxsLKLVNhBMXqxduxYxMTFmyJNkFIPPj4fatsUeFXzhoKVa6ePKy80QhRKDr3GEW/CxqUtEjsManx9TunfHz6tX47Cjj8Z1n3xiShvXc2edhd+2bsUx3brhplWrTCmFEmt8jYM1Pps4pHlz199mzXBUXFyTdPLc+jWY10JEocHgIyLHYfARkeM4K/h27QI+/hjYvt0URJBt21zLJssYabjeKMScE3zr1wNnnQU89RTQt6/rwxYpZFlkmWTZZBllWSMF1xs1AOcc1c3IwNy9JyG9oDmwbx+wezcQHW1GVicnD8uZ+ikdViJ/0zxT2rjSYlJRsLmHPrhR40nUcr5h69ZAixbIS9mPQS03AM88Y0baXJDrrS52bd6s/96RvBO3F3i+bw+m3IAHCo/U/W06dNB/QyaS15sXHtUlImpizqnxSTNi0CCgVy+gpATIzQXOPtuMrO7phARsXr5cf8vfqpapKfxLfWNJbaSDes03ymv2R5pMqmYE9ZqhXjPmzgU6dzYjbS7I9RasJj2PL5LXmxfW+JqKfKDkROSbbwYWLw7pxtPkZFlkmWTZZBkjaePheqMG4Kymbps2rg9bu3amIILIMsmyyTJGGq43CjHu4yMix2HwEZHjMPj8sG46KXfd3VZW1iSddcdf3gCTKLR4dxY/eD8+Z+DdWRoHj+oSETUx1vj8mHvttdizc6d6h6LQ+uijTWnj2r11K1BRgZZHHolBvPV8g2CNr3GEW42PwUeOxuBrHGzqEoURuQ764iee0F2fG280pVWkzBrPG8JGDgYfOZrc5frMW27RXZdLLjGlVaTMGm/dEZvsj8FHRI7D4CMix2HwEZHjMPiIyHEYfETkOAw+InIcBh8ROQ6Dj4gch8FHRI7D4CMix2HwEZHjMPiIyHEYfETkOAw+InIcBh8ROQ6Dj4gch8FHRI7D4CMix2HwEZHjMPiIyHEYfETkOAw+InIcBh8ROQ6Dj4gch8FHRI7D4CvLQVJUFKIquyTklJlx7gKdrjYyn6Qc+H1obeOdrDDD7f1XXUahGeEl0OlCxX2dcf3ZAoNPJGajtKICFdKVpiE/PgM+N5VAp6tJXCaWLMlEnBmkwJTlJCEqBSiw3n/VFWBOtfc/0OlCiuvUdhh83uK6IsH01sh7Oo8aYVVtUG+IVrnUBNxqBNXGqX85w7NQVJSFeFWWJDPxmK8JWjOPnAy3sohWhnn5QHZpLpJNiUjO9RyubTqP99taR/q9zEBGklUeBauC6HN6rRAZleVq+mnWOuX6swsGn7fCOchL7I54M+iXx3RqQ4hfhQlWLUNqg8NdITc8K6Gy9lGQsAqlenrF57g4ZM7IRqKpWS7JLFXzzUJCgWua0uwSpFhbpdq4Vg2Wcu+NPwKVzUN+UQK61lalqmW6uMwlrvUjXUECsiZb72UJus+wytORl+IKI9/Tq3BL0lXKynG5/fRcFK4/u2DwCfMNrb+VJ3ZHqb9mi7/pytagBHlIscapD3tRkQoyXSuUcteG5FFDqWmcRearNqKxZkRcahoS80yzza3cEQL5MhI1Tede+0rJA0rWqBhTEtOQaq3w5MFIV2tzjVUb9J5ewhUBvvdcf2GLwSfMN3RFqfq2lsAyxdXUNJ01rrKTIEtGru4fjDl6A3Jv1tQ0jjzIl0RRPuZVNjX9qGk6CbH4fKSVmvUj69CM8mljkNOTrTD43MlO6gJU1sL88p5Ob3BZsFpOldTGlqF3DEnIlSI7UdUkNrpG+RxnbbBWqHrNt2xePorSB6tHOE0yxmYDWV4HkwozvNdTLdO51ez0e+nq9aR3YajpOqp+X9PHpSINPta1O66/sMfg85ac69oXU9vpKh7TqfBSNYKSFNMskk52dqsPvtoKTVk88tNmIFM2KOFrnGxkKlQnpLuazUk58R7zjZd9grnO3Gxkf5vr/Tbvr+pSUD1E/E4n72tC1a6K4asSqmpw7rswZPed7MLwO71rP577us5YpEe4cP3ZQlR5eXmF6Q+JTZs2oUuXLmaoZhMfehwTxo0xQ0RNQJrAw4EZPB2lQRUXF5u+4MXGxiI6OjqovFi7di1iYmLMkCfJKNb4iMhxGHzkbLK/lrU9x2HwEZHjMPiIyHEYfETkOAw+InIcBh8ROQ6Dj4gch8FHRI7D4CMix2HwEZHjMPiIyHEYfETkOAy+hrR+PZCR4eqkn4jCAoOvoezaBQwahLl7T9Kd9OsyImpyDL6GsmwZ0KsX0gua6076dRkRNTkGX0Pp0QMoKQH27XN10i9lRNTkGHwNpV07IDcX2L3b1Um/lBFRk2PwNaSzzwaio12d9BNRWGDwEZHjMPiIyHEYfETkOAw+InIcBh8ROQ6Dj4gch8HXQNa98w7evO46XF4+BVdsexSr5841Y4ioqTH4QuyXH3/E8+efjxf//Gd8OW0aYvZuwFH7f8Lv27ebKYioqTH4QkhCb1piIjYsXGhKgBZt2qBNhw5ocdhhpoSImhqDL4TeuOoq7Ni4Ufd3GzIEN5aUYPyvv+LWTZvQc9gwXU5ETY/BFyKlBQXY8MEHur/75Zdj2BtvoIPckYWIwg6DL0SWv/qq6QMumDTJ9BFROGLwhciWlSv131bt2uHoLl10PxGFJwZfiFQcPKj/Rh3Ct5Qo3HErDZFjunXTf3/buhXb+fsaYWn3zz/j3XHjcHD/flNSdwf27dPz2q3WN9kPgy9EeqalmT7gg3vuMX0ULiT0Zlx4IT5++GG8dsUV9Qo/Cb3Xhg3T83pBzZPhZz8MvhDpOmgQjjvzTN3/9QsvYM6IEdjx7bd6mJqWFXqbvvpKD696/fU6h58Veqtnz9bDPy1bxvCzIQZfiERFRWHozJk4/Nhj9fBXzz+PnE6dMKlNG919+sQTupwal3foWST8Ft51lxkK3MIJEypDz8Lwsx8GXwhFd+yIobNm6RDUKiqwb/du3e3/7TdXGTUaCb3nL7igWuiJY3v3RtKtt5qhwCWNHYuYU081Q1Uk/Gao55J9vBT+GHwhtPO773QTqkIFnqXZoYeiWcuWuqPGY4Xe5q+/NiVVJPSGv/suDjvqKFMSuNZHH60f6yv8JGDlORl+4Y/BF0KvX3klfvn+e93fSwXgLaWluHPPHtz5++84KzNTl1PDk6PqUvsKdehZAgm/7d98Y0ooHEWVl5dXVU9CYNOmTegS4Am8Ex96HBPGjTFD9rZ23jy8csklul9C7/JXXtH91Lgk9Kb374+dPg4syQ0jzr3zznqFnjvZp7f4gQewb9cuU1JFdntcvXAh2p10kilxtuLiYtMXvNjYWERHRweVF2vXrkVMTIwZ8iQZxeALkTf+9jeUvPSS7pea3lFxcbqfGk9NodcUGH5Vwi342NQNkZ9XrdJ/pTbB0Gt84RZ6Qu7U87x6TWz2hh8GH0WGqKiqo+lhRF5TOL4up2Pwhcgx3bvrv79t24ZtZWW6nxqPNCelWSnNy3AR3amTfk1t1V8KL9zHFyI8uBEepFkpzUvrhrDu5OBG3zvuQJtjjjEl9bNryxYsnjTJ58ENCTuGXhUe3HATScEn/tO3L7796CPdL+HXf+JE7u9rAhJ+M4cM8X3i8qmn4u/vvqtPSakPf1eECHmOYbNnM/Tc8OBGBJNa3hHHHaf75cakT8bH4/6WLXF/q1b4JCdHl1PD083e995DzCmnmJIqobi8rMbQ691bBytDL7wx+ELoyOOPx1/kTsxuO7MP7N2LA3v26I4az2GqRtcQ4Vdr6C1YUO/aJDU8Bl8IyX6lWUOH6mt0hRzNa9G6te6a81fWGp2E33AVftL09CbhV/Too2YocEv+9S+/oSdXczD07IHBFyJyfe6sYcPw608/6eFTrr4aYzZswPhdu3R35ujRupwalwSRND29w6+H+oLqf999Zihw599/v/4xKXehuAyOGheDL0TWzJ2L7z/9VPef/Pe/Y/D06Yg+8UQ9TE3LO/wk9C5/+WUc0ry5Hg6GPEZ2Z1jhx9CzJwZfiKzIzzd9wHm8A3PYscLvnNtvr3PoWazwk3kx9OyJwVeDnd9/j8+efFJ30l+Tn1ev1n9lv1K7zp11P4UXCT/56c/6hJ5F5iHzYujZE4PPj9Vz5mBqz54oHD1ad9IvZf5Yv65m/doaEYUvBp8PW9euxRt//Sv27NhhSqD75Q4sMs6X9j166L+/b9/udxoiCg8MPh+WTp2qbxcvLn78cd0JuTRJxvkiV2pY3hs/3vQRUThi8PngXtOL/fOfdWdxH+cuPiUFnfr31/3yQzYzL7sMm5cv18NEFF4YfD50ufRS0wfk9u6tO4v8jKQ/l730UuXdQeSXuJ5OSNC/sPavmBismDlTlxNR02Pw+dB9yBD0vvZa3S+/jmb9QlrvkSPRbfBg3e/LEX/4A6775JPKmp+QJvOuzZuxj7+yRhQ2GHx+XDptGi597jmckJSkO+mXrjbyu7pXv/8+/vbf/+qg3HRoJ2xrfixatWtnpiCipsbgq4EE17Uff6w76Q9G7EUX6aB8ve1NePWo/0O3GprIRNS4GHxE5DgMPiJyHAYfETkOg4+IHIfBR0SOw+AjIsdh8DWkjz8G5BI36aSfiMICg6+hbN8OpKcDrVu7uowMVxkRNTkGX0NZuRI4+WSgRQtXl5DgKiOiJsfgayjy+w7LlyMvZb/upF+XEVGTY/A1lDZtgLlzMejQbzCo5Qbdr8uIqMkx+BqS/PZGbi7wzDOufiIKCww+InIcBh8ROQ6Dj4gch8FHRI7D4CMix2HwEZHjMPhCrSwHSUk5KDODFIG4jm3PucFX24dXxkdFIUp3GSg0xQ2GG1PgvN+rwgy9njIafCV54TqzLdb4/InLxJLSbCQmZqO0IhfJppjCjIRPSgmySyuQ29grST4jSzIRZwbJPhh8gTLf7jkZVi3QrYYh46zaYXwWiqwy99qAx3AhMqzp9XzKkDNcPa4oC/FqOClHTeU+T6vG6fEaGqEWGu7k/YjPR1rpEmT6TB/v91kV1fC+VltX+m8GMpK85mHxmC6Az4Z07s9DTYbBFwwVTKsGV6CiQnUF6cibKB9itXGpsEsoMOVSSzST+6ZCLikFsKZXXW5yHDJnWLXLCizJLPWYZ2l2CVKsLanyNTi9FpqP4TWGnq/32XNdebyv/hSVoPsMMw9Z5yl+vnBC8tmgxsLgC4YKprFW2sR3d32Iy9agxL28NmXz1CZby/Re84xLTUNi3hzXBhfMc0UyVa1Oy05A1nA/NShf73NN76s/iWlItYI1eTDSUYI1G82wu1B8NqjRMPjIniSQMnNRmpaP+NpqbU2ldJVrtweFHQZffcV1RUJRPuaZakfZvPyqD3vRKpSa3sryuFSkIQuTfW2r1vR6nlXT6MemD+YBFh/iMmcguyTFtV/Una/3uab31de68lY4B3kSuB3NcG2khuj22aDw4ezgUxuBHExw7Xj22ncjO6XlQIWepqYDCcnILVBNrnjXfIavSnA1c+IyMUP2IZn5V5bDtT+vJMV6XrMjXE0/IT1PT5+UE4/c0qpp4rMSUNDohyztQr2fSwqQkBXvFX6+3me1rny9r37XleL+GZFdhkEdxfX8bFQe+KImF1VeXl5h+kNi06ZN6NKlixmq2cSHHseEcWPMEFGYkS+/4cCMUJ2yIucbzhmMCgd+iRUXF5u+4MXGxiI6OjqovFi7di1iYmLMkCfJKDZ1iRpQodspLrrGyJp7WGDwEfkTghOUk3PNqSy644nw4YLBR0SOw+AjIsdh8BGR4zD4iMhxGHxE5DgMPiJyHAYfETkOg4+IHIfBR0SOw+AjIsdh8BGR4zD4iMhxGHxE5DDA/wOLD+lq73nBKwAAAABJRU5ErkJggg==;" vertex="1" parent="1">
          <mxGeometry x="50" y="40" width="318" height="726" as="geometry" />
        </mxCell>
        <mxCell id="LluAJBt3xVjl9sZeZdFl-2" value="" style="rounded=0;whiteSpace=wrap;html=1;fillColor=none;strokeColor=#007FFF;dashed=1;strokeWidth=5;" vertex="1" parent="1">
          <mxGeometry x="80" y="140" width="240" height="440" as="geometry" />
        </mxCell>
        <mxCell id="LluAJBt3xVjl9sZeZdFl-3" value="" style="rounded=0;whiteSpace=wrap;html=1;fillColor=none;strokeColor=#FF0000;dashed=1;strokeWidth=5;" vertex="1" parent="1">
          <mxGeometry x="80" y="590" width="240" height="170" as="geometry" />
        </mxCell>
        <mxCell id="LluAJBt3xVjl9sZeZdFl-4" value="&lt;font style=&quot;font-size: 30px;&quot;&gt;Component Color Coding&lt;/font&gt;&lt;div&gt;&lt;font style=&quot;font-size: 26px;&quot;&gt;(&lt;b style=&quot;&quot;&gt;&lt;font style=&quot;color: rgb(51, 153, 255);&quot;&gt;&lt;u&gt;Universal&lt;/u&gt;&lt;/font&gt;&lt;/b&gt; vs &lt;font style=&quot;color: rgb(255, 0, 0);&quot;&gt;&lt;b&gt;&lt;u&gt;SPICE-Only&lt;/u&gt;&lt;/b&gt;&lt;/font&gt; Models)&lt;/font&gt;&lt;/div&gt;" style="text;strokeColor=none;align=center;fillColor=none;html=1;verticalAlign=middle;whiteSpace=wrap;rounded=0;" vertex="1" parent="1">
          <mxGeometry x="390" y="40" width="470" height="150" as="geometry" />
        </mxCell>
        <mxCell id="LluAJBt3xVjl9sZeZdFl-5" value="&lt;b&gt;Blue components are &quot;universal&quot;&lt;/b&gt;, meaning that they are compatible with BOTH the Qucsator backend (non-SPICE) and the SPICE-based backends (such as ngspice). The price for this convenience is that the full SPICE modeling feature set may not be available." style="shape=callout;whiteSpace=wrap;html=1;perimeter=calloutPerimeter;fillColor=#dae8fc;strokeColor=#6c8ebf;direction=south;fontSize=25;spacing=5;size=80;position=0.46;" vertex="1" parent="1">
          <mxGeometry x="320" y="210" width="540" height="290" as="geometry" />
        </mxCell>
        <mxCell id="LluAJBt3xVjl9sZeZdFl-6" value="&lt;b&gt;Red components are &quot;SPICE-only&quot;, &lt;/b&gt;they are NOT compatible with Qucsator. However, the full complement of SPICE model parameters and features is accessible through these models." style="shape=callout;whiteSpace=wrap;html=1;perimeter=calloutPerimeter;fillColor=#f8cecc;strokeColor=#b85450;direction=south;fontSize=25;spacing=5;size=80;position=0.46;" vertex="1" parent="1">
          <mxGeometry x="320" y="560" width="540" height="190" as="geometry" />
        </mxCell>
      </root>
    </mxGraphModel>
  </diagram>
</mxfile>
